<?xml version="1.0" encoding="UTF-8"?>
<svg id="Layer_1" xmlns="http://www.w3.org/2000/svg" version="1.1" viewBox="0 0 829.8 115">
  <!-- Generator: Adobe Illustrator 29.1.0, SVG Export Plug-In . SVG Version: 2.1.0 Build 142)  -->
  <defs>
    <style>
      .st0 {
        fill: #65a5c3;
      }

      .st1 {
        fill: #b6d435;
      }

      .st2 {
        fill: #58bf9b;
      }

      .st3 {
        fill: #e1e031;
      }

      .st4 {
        fill: #1a1414;
      }

      .st5 {
        fill: #e3255c;
      }

      .st6 {
        fill: #fff;
      }

      .st7 {
        fill: #f7bc1a;
      }

      .st8 {
        fill: #e14c99;
      }

      .st9 {
        fill: #9a5fa7;
      }

      .st10 {
        fill: #ea7249;
      }

      .st11 {
        fill: #5c69b1;
      }
    </style>
  </defs>
  <g id="Layer_11" data-name="Layer_1">
    <g id="uuid-bc62aa1c-3fce-46de-9438-52344a33b987">
      <g>
        <g id="uuid-bc62aa1c-3fce-46de-9438-52344a33b987-2">
          <g>
            <path class="st6" d="M748.6,28.9v.6c0,6.7-.2,13.5-.3,20.3.2,0,.3,0,.4-.2,2.5-2,5.5-3.2,8.6-4,1.8-.4,3.6-.7,5.4-.9,1.4-.2,2.7-.2,4.1-.3,4.1-.3,8.2-.3,12.4-.3s4,0,6,.2c1.6,0,3.1.2,4.7.4,2.1.2,4.2.5,6.3.9,3.2.6,6.4,1.5,9.4,2.9,2.5,1.2,4.8,2.6,6.8,4.5,2.9,2.7,4.9,6.1,5.9,9.9.7,2.4,1.1,4.8,1.3,7.2.4,4.1.5,8.1.3,12.2,0,1.3,0,2.5-.2,3.8-.3,3.9-1,7.8-2.3,11.5-1.1,3-2.8,5.7-5.1,8-2,1.9-4.3,3.4-6.9,4.5-2,.9-4.1,1.5-6.3,2-1.9.5-3.8.8-5.7,1.1-1.4.2-2.7.3-4.1.5-1.5,0-2.9.3-4.4.4-1.1,0-2.3,0-3.4.2-4.5.2-9.1.2-13.6.2s-4.8,0-7.3-.2c-1.6,0-3.2-.2-4.7-.3-2.4-.2-4.8-.4-7.2-.8-2.9-.5-5.8-1.1-8.6-2.1-2.9-1.1-5.6-2.5-8-4.7-2.3-2.1-4.2-4.5-5.4-7.4-.6-1.4-.9-2.9-1.2-4.3-.3-1.7-.5-3.5-.6-5.2,0-1.6,0-3.2,0-4.8v-.9c0-.7.6-1.1,1.3-1.2h19c.7,0,1.2.5,1.3,1.3,0,.3,0,.7,0,1,0,1.5,0,3.1.3,4.6s.6,3,1.3,4.3c.5.9,1.2,1.7,2.1,2.2,1.1.7,2.3,1.1,3.5,1.4,1.1.3,2.2.5,3.4.6,1.3,0,2.6.3,3.9.4,1.4,0,2.7.2,4.1.2h10.7c1.7,0,3.5,0,5.2-.2,1,0,2,0,3-.2,1.1,0,2.2-.2,3.3-.4,1.6-.2,3.2-.6,4.7-1.1.8-.3,1.6-.7,2.3-1.1.9-.5,1.6-1.3,2.1-2.2.5-1.1.8-2.3,1-3.5.3-2.2.4-4.4.5-6.6v-5.3c0-1.7,0-3.3,0-5,0-1.5-.2-2.9-.5-4.3-.2-1-.6-2-1.1-3-.7-1.4-1.7-2.4-3.1-3.2-1.4-.8-2.9-1.3-4.5-1.6-2-.4-4-.6-6.1-.8-2.8-.2-5.6-.3-8.4-.3h-7.3c-1.8,0-3.7,0-5.5.2-.9,0-1.7,0-2.6.2-2,.2-4.1.4-6,1.1-.6.2-1.1.4-1.6.7-1.2.6-2.2,1.6-2.8,2.8-.2.5-.4,1-.6,1.5-.3.8-.9,1.2-1.7,1.3h-16.4c-.4,0-.7,0-1.1,0-.6-.2-.9-.5-1-1.1,0-.3,0-.5,0-.8V15c0-.7.5-1,1.2-1.2h84.7c.8.1,1.3.6,1.4,1.4v11.7c0,.3,0,.6,0,.9,0,.6-.5.9-1.1,1h-64.9Z"/>
            <path class="st6" d="M667.6,95.2c.2-.2.3-.5.4-.8,1.4-3.6,2.7-7.3,4.1-10.9,1.8-4.8,3.9-9.5,5.9-14.2,7.7-18,15.4-36,23-54,0-.2,0-.3.2-.5.3-.7.8-1.1,1.6-1.1h19.2c.3,0,.7,0,1,.1.8.2,1.3,1,1.2,1.8,0,.4-.2.7-.4,1.1-1.7,4.1-3.5,8.3-5.3,12.4-8.8,20.8-17.7,41.6-26.5,62.3-2.9,6.9-5.9,13.8-8.8,20.7,0,0,0,.3-.2.4-.3.7-.9,1.1-1.6,1.1h-28.1c-.7,0-1.2-.4-1.5-1.1,0-.2-.2-.4-.2-.5-12.2-28.6-24.4-57.2-36.6-85.8-1.4-3.2-2.7-6.3-4.1-9.5,0-.3-.2-.5-.3-.8-.3-1.1.3-2,1.4-2.1h20c.5,0,.9.4,1.2.8,0,.2.2.4.3.7,9,20.8,18,41.6,27,62.4,1.3,2.9,2.4,5.9,3.5,8.8,1,2.7,2,5.3,3.1,8,0,.2.2.5.3.8h.2Z"/>
          </g>
        </g>
        <path d="M752.5,25.5v.6c0,6.7-.2,13.5-.3,20.3.2,0,.3,0,.4-.2,2.5-2,5.5-3.2,8.6-4,1.8-.4,3.6-.7,5.4-.9,1.4-.2,2.7-.2,4.1-.3,4.1-.3,8.2-.3,12.4-.3s4,0,6,.2c1.6,0,3.1.2,4.7.4,2.1.2,4.2.5,6.3.9,3.2.6,6.4,1.5,9.4,2.9,2.5,1.2,4.8,2.6,6.8,4.5,2.9,2.7,4.9,6.1,5.9,9.9.7,2.4,1.1,4.8,1.3,7.2.4,4.1.5,8.1.3,12.2,0,1.3,0,2.5-.2,3.8-.3,3.9-1,7.8-2.3,11.5-1.1,3-2.8,5.7-5.1,8-2,1.9-4.3,3.4-6.9,4.5-2,.9-4.1,1.5-6.3,2-1.9.5-3.8.8-5.7,1.1-1.4.2-2.7.3-4.1.5-1.5,0-2.9.3-4.4.4-1.1,0-2.3,0-3.4.2-4.5.2-9.1.2-13.6.2s-4.8,0-7.3-.2c-1.6,0-3.2-.2-4.7-.3-2.4-.2-4.8-.4-7.2-.8-2.9-.5-5.8-1.1-8.6-2.1-2.9-1.1-5.6-2.5-8-4.7-2.3-2.1-4.2-4.5-5.4-7.4-.6-1.4-.9-2.9-1.2-4.3-.3-1.7-.5-3.5-.6-5.2,0-1.6,0-3.2,0-4.8v-.9c0-.7.6-1.1,1.3-1.2h19c.7,0,1.2.5,1.3,1.3,0,.3,0,.7,0,1,0,1.5,0,3.1.3,4.6s.6,3,1.3,4.3c.5.9,1.2,1.7,2.1,2.2,1.1.7,2.3,1.1,3.5,1.4,1.1.3,2.2.5,3.4.6,1.3,0,2.6.3,3.9.4,1.4,0,2.7.2,4.1.2h10.7c1.7,0,3.5,0,5.2-.2,1,0,2,0,3-.2,1.1,0,2.2-.2,3.3-.4,1.6-.2,3.2-.6,4.7-1.1.8-.3,1.6-.7,2.3-1.1.9-.5,1.6-1.3,2.1-2.2.5-1.1.8-2.3,1-3.5.3-2.2.4-4.4.5-6.6v-5.3c0-1.7,0-3.3,0-5,0-1.5-.2-2.9-.5-4.3-.2-1-.6-2-1.1-3-.7-1.4-1.7-2.4-3.1-3.2-1.4-.8-2.9-1.3-4.5-1.6-2-.4-4-.6-6.1-.8-2.8-.2-5.6-.3-8.4-.3h-7.3c-1.8,0-3.7,0-5.5.2-.9,0-1.7,0-2.6.2-2,.2-4.1.4-6,1.1-.6.2-1.1.4-1.6.7-1.2.6-2.2,1.6-2.8,2.8-.2.5-.4,1-.6,1.5-.3.8-.9,1.2-1.7,1.3h-16.4c-.4,0-.7,0-1.1,0-.6-.2-.9-.5-1-1.1,0-.3,0-.5,0-.8V11.6c0-.7.5-1,1.2-1.2h84.7c.8.1,1.3.6,1.4,1.4v11.7c0,.3,0,.6,0,.9,0,.6-.5.9-1.1,1h-64.9Z"/>
        <path d="M671.5,91.7c.2-.2.3-.5.4-.8,1.4-3.6,2.7-7.3,4.1-10.9,1.8-4.8,3.9-9.5,5.9-14.2,7.7-18,15.4-36,23-54,0-.2,0-.3.2-.5.3-.7.8-1.1,1.6-1.1h19.2c.3,0,.7,0,1,.1.8.2,1.3,1,1.2,1.8,0,.4-.2.7-.4,1.1-1.7,4.1-3.5,8.3-5.3,12.4-8.8,20.8-17.7,41.6-26.5,62.3-2.9,6.9-5.9,13.8-8.8,20.7,0,0,0,.3-.2.4-.3.7-.9,1.1-1.6,1.1h-28.1c-.7,0-1.2-.4-1.5-1.1,0-.2-.2-.4-.2-.5-12.2-28.6-24.4-57.2-36.6-85.8-1.4-3.2-2.7-6.3-4.1-9.5,0-.3-.2-.5-.3-.8-.3-1.1.3-2,1.4-2.1h20c.5,0,.9.4,1.2.8,0,.2.2.4.3.7,9,20.8,18,41.6,27,62.4,1.3,2.9,2.4,5.9,3.5,8.8,1,2.7,2,5.3,3.1,8,0,.2.2.5.3.8h.2Z"/>
      </g>
    </g>
    <g id="uuid-85091f4c-c228-4d70-aa1b-5ec912b6d59d">
      <g>
        <path class="st4" d="M167.4,46.8c1-1.8,2-3.7,3-5.5,5.2-9.7,10.4-19.4,15.7-29,.1-.2.2-.4.3-.6.3-.5.7-.8,1.3-.8h14.8c1,0,1.5.5,1.5,1.4v48.9c0,16.1,0,.2,0,.3,0,1.2-.5,1.7-1.7,1.7h-8.7c-1.5,0-1.9-.4-1.9-1.9,0-8,.2-15.9.2-23.9v-10.9c-.2.2-.3.4-.4.6-6.3,11.6-12.7,23.3-19,34.9-.5.9-1.1,1.2-2,1.2h-6.6c-1,0-1.6-.3-2-1.2-6.2-11.6-12.5-23.2-18.8-34.8-.1-.3-.3-.5-.5-.9-.2.3,0,.5,0,.7,0,11.3.1,22.5.2,33.8v1.1c0,.7-.5,1.1-1.2,1.2h-9.5c-.9,0-1.4-.5-1.5-1.4V12.8c0-16.1,0-.2,0-.3,0-1.2.5-1.7,1.7-1.7h14.5c.8,0,1.4.4,1.8,1.1,6.1,11.4,12.3,22.7,18.4,34.1.1.3.2.6.5.8h0ZM192.4,21.5h.1v.5c0,4.5,0,9-.1,13.5,0,8.7-.2,17.4-.2,26s0,.7.7.7h8.3q.7,0,.7-.7V13.2q0-.7-.7-.7h-13.8c-.5,0-.7.1-1,.6-1,2-2.1,4-3.2,6-5.4,10.1-10.9,20.2-16.3,30.3-.1.2-.2.5-.4.6-.1-.2-.2-.4-.4-.6-3.4-6.2-6.7-12.4-10.1-18.7-3.1-5.8-6.3-11.6-9.4-17.5-.2-.4-.4-.6-.8-.6h-14.2q-.6,0-.6.6v48.6q0,.6.6.6h8.3q.7,0,.7-.8v-2.4c0-12.3-.2-24.5-.2-36.8v-.7h.1c.3.6.6,1.2,1,1.7,6.9,12.8,13.8,25.6,20.7,38.3.3.5.5.6,1.1.6h6.2c.7,0,1-.2,1.3-.8,7-13,14.1-25.9,21.1-38.9.2-.4.4-.7.6-1.1h-.1Z"/>
        <path class="st4" d="M573.5,42.5c-5.1,0-8.8,0-12.4-.2-2.2,0-4.4-.4-6.6-1-3.7-1.1-6-3.5-7.2-7.1-.9-2.8-1-5.7-.8-8.5,0-2.2.5-4.4,1.2-6.6,1.1-3.4,3.3-5.6,6.7-6.8,2.5-.9,5.1-1.3,7.7-1.6,6.2-.6,12.5-.5,18.8-.4,2.8,0,5.5.2,8.2.8,1.9.4,3.7,1,5.4,2.1,1.8,1.2,3,2.8,3.8,4.8.9,2.4,1.1,5,1.1,7.6v1.3c0,.6-.5,1-1.1,1h-9.5c-1,0-1.5-.5-1.6-1.5,0-.6,0-1.2-.2-1.9-.2-1.2-.8-2-2-2.3-1.1-.4-2.3-.6-3.5-.7-3.9-.5-7.8-.4-11.6-.2-2.2,0-4.5.3-6.7.6-.7.1-1.4.3-2.1.5-1.2.5-1.9,1.4-2.1,2.6,0,.9,0,1.9,0,2.8.2,1.3,1,2.1,2.3,2.4s2.6.4,3.9.4c4.7.2,9.5,0,14.2.1,2.8,0,5.6,0,8.4.3,1.8.2,3.7.5,5.4,1.1,3.5,1.1,5.6,3.5,6.7,6.9.6,1.7.9,3.5.9,5.3.2,3.4,0,6.8-1.1,10.2-1.2,3.5-3.4,5.8-7,7-2,.6-4.1,1.1-6.3,1.3-7.5.7-15.1.6-22.7.3-2.5,0-5-.3-7.4-.8-1.7-.4-3.4-.8-5-1.8-2-1.3-3.3-3.1-4-5.4-1-3-1.1-6.2-.9-9.3,0-.9.6-1.4,1.6-1.4h9c1.2,0,1.7.5,1.7,1.7s0,2.1.2,3.1c.2,1.1.7,1.8,1.8,2.1.9.3,1.9.5,2.9.6,2.3.2,4.7.3,7,.3s6.3,0,9.4-.4c1.6-.2,3.3-.4,4.9-.7,1.8-.3,2.6-1.4,3-3.1.2-.9.2-1.9,0-2.9,0-1-.7-1.6-1.5-2.1-1.1-.6-2.3-.8-3.5-.8-3.7-.2-7.4,0-9.7,0h0l.3.4ZM571.2,41.5c3.7,0,7.4,0,11.2,0,1.4,0,2.7.3,3.9.9,1.3.6,2.2,1.5,2.5,3,.4,1.9,0,3.7-.8,5.4-.4.8-1.1,1.3-1.9,1.7s-.9.3-1.4.4c-2.4.5-4.9.8-7.3.9-4.6.3-9.1.3-13.7,0-1.3,0-2.6-.3-3.8-.7-1.5-.5-2.4-1.5-2.7-3-.2-1.1-.3-2.2-.3-3.3s0-.6-.6-.6h-8.6q-.6,0-.6.6v3.4c0,1.8.3,3.6,1,5.4,1,2.6,2.8,4.4,5.4,5.3,1,.3,2,.5,3,.7,2.6.4,5.2.6,7.9.7,7.1,0,14.3.3,21.4-.4,2-.2,3.9-.5,5.8-1.2,2.6-.8,4.5-2.4,5.6-4.9.2-.5.5-1.1.6-1.7,1-3.2,1-6.5.8-9.8,0-1.1-.2-2.2-.5-3.3-1-4-3.4-6.6-7.5-7.5-1.5-.3-3-.5-4.5-.7-3.1-.2-6.3-.3-9.4-.3h-9.3c-1.6,0-3.1,0-4.7-.2-1.1,0-2.3-.2-3.4-.7-1.2-.5-2-1.3-2.4-2.5s-.4-2.4-.2-3.6c.3-2.2,1.5-3.6,3.7-4.1,0,0,.3,0,.4-.1,1.8-.4,3.6-.6,5.5-.8,4.7-.3,9.3-.5,14,0,1.4.2,2.7.4,4.1.8,1.5.5,2.4,1.5,2.8,3,0,.7.3,1.4.3,2.1s0,.5.5.5h8.7c.4,0,.5-.1.5-.5,0-1.9,0-3.9-.5-5.8-.7-3.5-2.6-5.9-6-7.2-1.5-.5-3-.9-4.6-1.1-2.4-.3-4.8-.4-7.2-.5-6.5-.1-13-.2-19.5.6-1.9.2-3.8.6-5.7,1.3-2.9,1-4.8,3-5.7,5.9-.6,1.8-.9,3.7-1.1,5.6-.2,2.6-.2,5.2.4,7.7,1,4,3.3,6.5,7.4,7.5,1.9.4,3.8.6,5.7.7,3.5.2,7.1,0,10.7,0h0v.2Z"/>
        <path class="st4" d="M514.1,42.5c-5.2,0-8.9,0-12.5-.2-2.2,0-4.3-.4-6.5-.9-3.9-1.1-6.3-3.6-7.4-7.5-.5-1.7-.7-3.4-.8-5.1,0-3.3.3-6.5,1.3-9.6,1.1-3.4,3.3-5.6,6.7-6.8,2.1-.7,4.3-1.2,6.5-1.4,6.7-.8,13.5-.7,20.3-.5,2.6,0,5.3.2,7.9.8,1.9.4,3.6,1,5.3,2,1.9,1.2,3.2,2.9,4,5,.6,1.7.9,3.5,1,5.3v2.9c0,1-.5,1.5-1.6,1.6h-8.6c-2.7,0-.2,0-.4,0-1.2,0-1.7-.5-1.7-1.6s0-1.1,0-1.6c-.2-1.2-.8-2.1-2-2.4-1.2-.4-2.4-.6-3.6-.7-4.7-.5-9.4-.4-14.1,0-1.8.1-3.6.3-5.4.7-1.6.4-2.7,1.3-2.9,3.3v2.6c.2,1.3,1.1,1.9,2.3,2.2,1.2.3,2.4.4,3.6.4,2.4,0,4.7.1,7.1.1h10.7c2.7,0,5.4.2,8,.7,1,.2,2,.4,2.9.8,3.3,1.2,5.3,3.6,6.3,6.9.9,2.9,1.1,5.9,1,9,0,2.1-.4,4.2-1.1,6.3-1.2,3.7-3.6,6.1-7.3,7.2-2.4.7-4.9,1.1-7.4,1.3-6.5.5-13,.4-19.6.3-3,0-6-.2-8.9-.8-1-.2-2-.5-3-.8-3.2-1.1-5.1-3.4-6.1-6.6-.9-2.9-1-5.9-.8-8.9,0-1.2.6-1.6,1.8-1.6h8.9c1.2,0,1.7.5,1.7,1.7s0,2.1.2,3.2c.2,1,.7,1.7,1.8,2.1.9.3,1.9.5,2.9.6,3.4.3,6.9.3,10.4.2,3.5,0,6.9-.4,10.3-.9.2,0,.4,0,.6,0,1.8-.4,2.6-1.1,3.1-3.2.2-1,.2-2,0-2.9-.2-.8-.7-1.4-1.4-1.8-1.2-.6-2.4-.8-3.7-.9-3.7-.2-7.4,0-9.5,0h0l-.2-.3ZM511.7,41.5c3.7,0,7.5,0,11.2.2,1.4,0,2.7.3,3.9.9,1.3.6,2.1,1.5,2.4,2.9.3,1.8,0,3.6-.7,5.2-.5,1-1.3,1.7-2.3,2-.3,0-.7.2-1,.3-2.4.5-4.9.8-7.4,1-4.5.3-9,.3-13.5,0-1.3,0-2.6-.3-3.9-.7-1.5-.5-2.3-1.4-2.7-2.9-.3-1.1-.3-2.2-.3-3.4s0-.6-.6-.6h-8.6q-.6,0-.6.6v3.9c0,1.8.4,3.7,1.1,5.4,1,2.2,2.6,3.8,4.9,4.7.8.3,1.7.5,2.6.7,2.9.6,5.9.7,8.8.8,6.6.2,13.2.3,19.8-.3,2.3-.2,4.6-.5,6.9-1.1,3.1-.9,5.3-2.8,6.4-5.8.2-.5.3-1,.5-1.5.8-2.9.8-5.9.6-8.9,0-1.4-.3-2.8-.7-4.2-1-3.7-3.4-6.1-7.2-7-1.5-.4-3.1-.6-4.7-.7-3.1-.2-6.3-.3-9.4-.3h-9.5c-1.5,0-3,0-4.5-.2-1,0-2-.2-3-.5-1.5-.5-2.4-1.5-2.8-3-.3-1.1-.3-2.2,0-3.4.3-2.1,1.5-3.4,3.6-4,.4-.1.8-.2,1.3-.3,2.4-.5,4.8-.7,7.3-.8,3.9-.2,7.7-.3,11.6.2,1.5.2,2.9.4,4.3.9,1.2.4,2,1.3,2.3,2.5.2.8.3,1.5.4,2.3,0,.4,0,.6.6.6h8.5q.6,0,.6-.6c0-1.9,0-3.7-.4-5.6-.7-3.6-2.6-6.1-6.1-7.4-1.8-.7-3.6-1-5.5-1.2-3.1-.3-6.2-.4-9.3-.4-4.5,0-9.1,0-13.6.4-2.2.2-4.4.5-6.6,1-.6.1-1.1.3-1.7.5-3.1,1-5.1,3.1-6,6.2-.9,2.9-1.1,5.8-1.1,8.7s0,3,.5,4.4c1,3.9,3.4,6.4,7.4,7.3,1.9.4,3.7.6,5.6.7,3.6.2,7.1,0,10.7,0h0v.4Z"/>
        <path class="st4" d="M294.1,63.2h-22.8c-1.1,0-1.6-.5-1.6-1.6V13c0-1.8.7-2,2-2h44.3c1.6,0,2,.4,2,2v7.8c0,1-.5,1.4-1.5,1.5h-33.5c-1,0-.9-.1-.9.9v7.6c0,.8-.1.7.7.7h32.4c.6.2.9.5,1,1.1v7.3c0,1.4-.4,1.9-1.9,1.9h-31.6c-.7,0-.6,0-.6.6v8.7c0,.8,0,.7.7.7h33.5c1.6,0,2.1.4,2.1,2.1v7.4c0,1.3-.5,1.8-1.8,1.8h-22.5ZM270.2,37.3v24.1q0,.7.7.7h44.6q.7,0,.7-.7v-7.1c0-1,0-.9-.9-.9h-34.9c-.4,0-.5,0-.4-.5v-11.1c0-1.3-.1-1.1,1.1-1.1h32.3q.8,0,.8-.8v-6c0-2,.1-.9-.9-.9h-32.9c-.2,0-.4,0-.4-.4v-10.5c0-1.1-.1-1,1-1h34.1c1,0,.9,0,.9-.8v-6.9c0-1,.1-.9-.9-.9h-44.2c-.3,0-.5.1-.5.4v24.4h-.2Z"/>
        <path class="st4" d="M446,31.3h32.6c.9,0,1.4.6,1.4,1.5v7.5c0,.9-.4,1.3-1.3,1.4h-32.1c-.8,0-.7,0-.7.7v8.6c0,.8,0,.7.7.7h33.9c1.1,0,1.6.5,1.6,1.6v7.8c0,1.4-.5,1.8-1.8,1.8h-45.1c-1.3,0-1.8-.5-1.8-1.7V12.3c0-1.3.5-1.7,1.7-1.7h44.8c1.3,0,1.8.5,1.8,1.8v7.6c0,1.5-.4,1.9-1.9,1.9h-33c-.6,0-1,.3-1,.9v7.8c0,.1,0,.3,0,.5h0v.2ZM457,62.2h22.3q.7,0,.7-.7v-7c0-1.1,0-.9-1-.9h-34.6c-.9,0-.8,0-.8-.8v-10.9c0-1.1,0-1,1-1h32.3c.8,0,.8,0,.8-.8v-6c0-1,0-.9-.9-.9h-32.9c-.2,0-.4,0-.4-.3v-10.4c0-1.2-.2-1.1,1.1-1.1h34.1q.8,0,.8-.8v-7c0-1,0-.9-.9-.9h-43.7c-1.1,0-1-.1-1,1v48.2c0,.4.2.5.5.5h22.5v-.2Z"/>
        <path class="st4" d="M123.5,30.5v13.3c0,2.6,0,5.3-.6,7.9-.3,1.8-.8,3.6-1.8,5.2-1.8,2.8-4.4,4.5-7.5,5.5-2,.6-4,.9-6,1-7.3.4-14.5.4-21.8,0-3.1,0-6.2-.4-9.2-1.4-3.9-1.3-6.5-3.9-7.8-7.8-.8-2.3-1-4.6-1.1-7-.1-2.6-.1-5.2-.1-7.8V12.5c0-1.1.5-1.6,1.7-1.6h9.1c1.4,0,1.8.4,1.8,1.8v32.3c0,1.1.2,2.1.5,3.1.3,1.2,1,2.1,2.2,2.6,1,.4,2.1.6,3.1.7,3.5.4,7,.4,10.6.4s6.1,0,9.2-.4c.7,0,1.4,0,2.1-.3,1.5-.5,2.4-1.6,2.8-3.1.3-1,.3-2.1.4-3.1V13.4c0-8.4,0-.3,0-.5,0-1.7.7-2,2-2h9c1,0,1.5.5,1.6,1.6v18.1h-.2ZM68.1,30.8v10.6c0,2.3,0,4.7.2,7,.1,1.7.3,3.4.7,5.1,1,3.8,3.3,6.5,7.1,7.7,1.1.4,2.2.6,3.3.8,2.5.4,5,.6,7.5.6,7.2.2,14.3.3,21.4-.3,1.7,0,3.3-.4,4.8-1,4-1.5,6.7-4.2,7.5-8.4.4-2,.7-3.9.7-5.9.1-11.3,0-22.5,0-33.8s0-.6-.7-.6h-8.5q-.7,0-.7.7v32.1c0,1-.1,2-.3,3-.6,2.7-2.2,4.2-4.9,4.6-1.9.3-3.7.4-5.6.4-5,.2-9.9.3-14.9-.2-1.3,0-2.7-.4-3.9-.8-1.7-.6-2.7-1.8-3.2-3.5-.3-1.3-.5-2.5-.6-3.8V13.5c0-1,0-.9-.9-.9h-8.1c-.9,0-.9-.1-.9.8v17.5h0Z"/>
        <path class="st4" d="M374.5,41.4c2.3,1.2,3,3.2,3.4,5.4.2,1.2.3,2.5.3,3.7v10.9c0,1.3-.5,1.7-1.7,1.7h-9.1c-1.3,0-1.8-.5-1.8-1.8v-8.4c0-.8-.1-1.7-.3-2.5-.3-1.5-1.2-2.4-2.8-2.6-1-.2-2.1-.2-3.1-.2h-23c-.2.3,0,.6,0,.8v12.8c0,1.4-.5,1.9-1.8,1.9h-8.9c-1.2,0-1.7-.5-1.7-1.7V12c.2-.7.6-1,1.3-1.1h36.7c2.5,0,4.9,0,7.3.6,1.5.3,2.9.8,4.2,1.6,2.3,1.4,3.6,3.6,4.4,6.1.7,2.3,1,4.7,1.1,7.1,0,2.7,0,5.4-.4,8.1-.3,1.9-.8,3.6-2,5.2-.5.7-1.2,1.3-2,1.9h-.1ZM370,42h0c.3,0,.6-.3.9-.4,2.6-.8,4.3-2.5,5.1-5,.3-.9.5-1.8.6-2.7.3-2.6.3-5.2.2-7.8,0-1.7-.3-3.5-.7-5.2-.4-1.6-1-3.2-2.1-4.5-1.5-1.9-3.6-2.9-6-3.3-2.4-.5-4.8-.6-7.2-.6h-35.5c-1,0-.9-.1-.9.9v48.2c0,.4.1.5.5.5h8.9c.3,0,.5,0,.5-.5v-14.2c0-.9-.1-.9.8-.9h25.3c.6,0,1.3,0,1.9.3,1.9.4,3,1.5,3.4,3.4.4,1.5.4,3,.4,4.5v6.7q0,.6.6.6h8.6q.7,0,.7-.7v-10.9c0-1.2,0-2.4-.3-3.6-.5-2.9-1.8-4.2-4.7-4.7-.4,0-.7,0-1.1-.2h.1Z"/>
        <path class="st4" d="M45,29.5V12.2c0-.8.5-1.2,1.4-1.3h11.6c.9,0,1.4.5,1.5,1.4v28.9c0,2.9-.1,5.8-.5,8.7-.2,1.6-.6,3.2-1.2,4.7-1.5,3.8-4.3,6.3-8.2,7.5-2.6.8-5.2,1.2-7.8,1.3-5.4.2-10.8.3-16.3,0-3,0-6.1-.3-9.1-1-1.7-.4-3.3-1-4.9-1.9-2.5-1.5-4.1-3.7-5-6.5-.8-2.6-1-5.2-.9-7.8v-4c0-1.2.5-1.7,1.8-1.7h10.4c1.3,0,1.8.5,1.8,1.8s0,3.2,0,4.7c0,.4,0,.9.2,1.3.3,1.2,1,2.1,2.3,2.5s2.7.6,4.1.7c3.6.4,7.3.3,10.9,0,1.4,0,2.8-.2,4.2-.5,2-.5,3-1.6,3.2-3.6.2-1.8.3-3.7.3-5.5v-12.5h.1ZM57.4,29.9h0V12.8c0-.2,0-.4-.3-.4h-10.6c-1,0-.9-.1-.9.9v28.2c0,2,0,4.1-.3,6.1-.3,2.9-1.6,4.4-4.4,5.1-1.1.3-2.3.5-3.5.5-4.1.3-8.2.3-12.4,0-1.5-.2-2.9-.4-4.3-.9-1.2-.4-2.1-1.3-2.5-2.5-.4-.9-.5-1.8-.6-2.7,0-1.4,0-2.9,0-4.3s0-.6-.5-.6H6.9q-.7,0-.7.7v2c0,2.5,0,5,.4,7.5.6,3.1,2,5.7,4.7,7.4,1.3.8,2.8,1.4,4.3,1.8,3,.7,6.1.9,9.1,1,5.5,0,10.9,0,16.4,0,2.3,0,4.5-.4,6.7-1.1,3.3-.9,5.9-2.8,7.5-5.9.8-1.6,1.2-3.3,1.5-5.1.4-2.7.6-5.5.6-8.2v-12.2h0Z"/>
        <path class="st4" d="M211.2,37V12.4c0-1.1.5-1.5,1.5-1.6h35.7c1.9,0,3.8,0,5.7.4,1.3.3,2.5.7,3.7,1.2,2.8,1.4,4.5,3.6,5.4,6.6.8,2.6,1.1,5.2,1.1,7.9s0,5.4-.3,8.1c-.2,1.8-.6,3.6-1.2,5.3-1.4,3.7-4.1,6-8,6.9-2.5.6-5,.7-7.5.7h-23c-.6,0-.8.3-.8.8v12.6c0,1.2-.5,1.7-1.7,1.7h-8.9c-1.4,0-1.8-.5-1.8-1.8v-24.4h0v.2ZM211.8,37.3v24.1c0,.7,0,.8.7.8h8.6c.4,0,.5-.2.5-.5v-13.7c0-1.1-.1-1,.9-1h24c2.3,0,4.6,0,6.9-.5,3.9-.7,6.4-3,7.7-6.8.6-1.7.8-3.4,1-5.2.3-3.3.3-6.6,0-9.8-.1-1.8-.4-3.5-1-5.2-.8-2.2-2.1-4-4.2-5.2-1.6-.8-3.2-1.3-5-1.5-2.1-.2-4.1-.3-6.2-.3h-33.2c-.9,0-.8,0-.8.9v24h.1Z"/>
        <path class="st4" d="M397.9,51.3h29.6c1.4,0,1.9.5,1.9,1.9v8.9c0,.7-.6,1-1.2,1.1h-41.4c-.7,0-1.1-.5-1.2-1.2V12.9c0-16.1,0-.2,0-.4,0-1.1.5-1.6,1.7-1.6h9.2c1.1,0,1.6.5,1.7,1.6v38.8h-.3ZM385.9,37.3v24.1c0,.7,0,.8.7.8h39.9q.7,0,.7-.7v-7.8c0-.9,0-.8-.9-.8h-30c-.4,0-.6,0-.5-.5V13.7c0-12.7,0-.3,0-.5,0-.5-.2-.7-.7-.7h-8.7q-.6,0-.6.6v24.2h.1Z"/>
        <path class="st9" d="M192.4,21.5c-.2.4-.4.7-.6,1.1-7,13-14.1,25.9-21.1,38.9-.3.6-.6.8-1.3.8h-6.2c-.5,0-.8-.2-1.1-.6-6.9-12.8-13.8-25.6-20.7-38.3-.3-.6-.6-1.2-1-1.7h-.1v.7c0,12.3.1,24.5.2,36.8v2.4q0,.8-.7.8h-8.3q-.6,0-.6-.6V13q0-.6.6-.6h14.2c.5,0,.7.2.8.6,3.1,5.8,6.3,11.6,9.4,17.5,3.4,6.2,6.7,12.4,10.1,18.7.1.2.2.4.4.6.3,0,.3-.4.4-.6,5.4-10.1,10.9-20.2,16.3-30.3,1.1-2,2.1-4,3.2-6,.2-.4.5-.6,1-.6h13.8q.7,0,.7.7v48.3q0,.7-.7.7h-8.3q-.7,0-.7-.7c0-8.7.2-17.4.2-26s0-9,.1-13.5v-.4h-.1.1Z"/>
        <path class="st1" d="M385.9,37.3V13.1q0-.6.6-.6h8.7c.4,0,.6.2.7.7v38.6c0,12.7,0,.4,0,.6,0,.4.1.6.5.5h30c1,0,.9,0,.9.8v7.8q0,.7-.7.7h-39.9q-.7,0-.7-.8v-24.1h-.1Z"/>
        <path class="st10" d="M571.2,41.5c-3.6,0-7.1,0-10.7,0-1.9,0-3.8-.3-5.7-.7-4.1-.9-6.4-3.5-7.4-7.5-.6-2.5-.5-5.1-.4-7.7,0-1.9.5-3.7,1.1-5.6.9-2.9,2.8-4.9,5.7-5.9,1.8-.7,3.7-1.1,5.7-1.3,6.5-.8,13-.8,19.5-.6,2.4,0,4.8.2,7.2.5,1.6.2,3.1.6,4.6,1.1,3.4,1.2,5.4,3.7,6,7.2.4,1.9.5,3.9.5,5.8s0,.5-.5.5h-8.7c-.3,0-.5-.1-.5-.5,0-.7,0-1.4-.3-2.1-.3-1.5-1.2-2.5-2.8-3-1.3-.4-2.7-.7-4.1-.8-4.7-.5-9.3-.3-14,0-1.8.1-3.7.3-5.5.8,0,0-.3,0-.4.1-2.2.5-3.4,1.9-3.7,4.1-.2,1.2-.2,2.4.2,3.6s1.2,2.1,2.4,2.5c1.1.4,2.2.6,3.4.7,1.6,0,3.1.2,4.7.2h9.3c3.1,0,6.3,0,9.4.3,1.5,0,3,.3,4.5.7,4.1.9,6.5,3.5,7.5,7.5.3,1.1.4,2.2.5,3.3.2,3.3.2,6.6-.8,9.8-.2.6-.4,1.1-.6,1.7-1.1,2.5-3.1,4.1-5.6,4.9-1.9.6-3.9,1-5.8,1.2-7.1.7-14.3.5-21.4.4-2.6,0-5.3-.2-7.9-.7-1-.2-2-.4-3-.7-2.7-.9-4.4-2.7-5.4-5.3-.7-1.7-.9-3.5-1-5.4v-3.4q0-.6.6-.6h8.6q.5,0,.6.6c0,1.1,0,2.2.3,3.3.3,1.5,1.2,2.5,2.7,3,1.2.4,2.5.6,3.8.7,4.6.3,9.1.3,13.7,0,2.5-.2,4.9-.4,7.3-.9.5,0,.9-.3,1.4-.4.8-.3,1.5-.9,1.9-1.7,1-1.7,1.2-3.5.8-5.4-.3-1.4-1.1-2.4-2.5-3-1.2-.5-2.6-.8-3.9-.9-3.7-.2-7.4,0-11.2,0h0v-.2Z"/>
        <path class="st7" d="M511.7,41.5c-3.6,0-7.2,0-10.7,0-1.9,0-3.8-.3-5.6-.7-4-.9-6.4-3.4-7.4-7.3-.4-1.5-.5-2.9-.5-4.4,0-3,.2-5.9,1.1-8.7.9-3.1,2.9-5.2,6-6.2.5-.2,1.1-.4,1.7-.5,2.2-.6,4.4-.8,6.6-1,4.5-.4,9.1-.4,13.6-.4s6.2,0,9.3.4c1.9.2,3.7.6,5.5,1.2,3.5,1.3,5.5,3.8,6.1,7.4.3,1.8.4,3.7.4,5.6s0,.6-.6.6h-8.5c-.4,0-.6-.1-.6-.6,0-.8,0-1.6-.4-2.3-.4-1.2-1.1-2.1-2.3-2.5-1.4-.5-2.9-.8-4.3-.9-3.9-.5-7.7-.3-11.6-.2-2.4,0-4.9.3-7.3.8-.4,0-.8.2-1.3.3-2.1.5-3.2,1.9-3.6,4-.2,1.1-.2,2.2,0,3.4.3,1.5,1.3,2.5,2.8,3,1,.3,2,.5,3,.5,1.5,0,3,.2,4.5.2h9.5c3.1,0,6.3,0,9.4.3,1.6,0,3.1.3,4.7.7,3.8.9,6.1,3.3,7.2,7,.4,1.4.6,2.8.7,4.2.2,3,0,5.9-.6,8.9,0,.5-.3,1-.5,1.5-1.1,3-3.3,4.9-6.4,5.8-2.2.7-4.5,1-6.9,1.1-6.6.5-13.2.4-19.8.3-2.9,0-5.9-.2-8.8-.8-.9-.2-1.7-.4-2.6-.7-2.3-.8-3.9-2.4-4.9-4.7-.8-1.7-1-3.5-1.1-5.4v-3.9c0-.5,0-.6.6-.6h8.6q.5,0,.6.6c0,1.1,0,2.2.3,3.4.3,1.5,1.2,2.5,2.7,2.9,1.3.4,2.6.6,3.9.7,4.5.3,9,.3,13.5,0,2.5-.2,5-.4,7.4-1,.4,0,.7-.2,1-.3,1-.4,1.8-1,2.3-2,.9-1.7,1.1-3.4.7-5.2-.3-1.4-1.1-2.4-2.4-2.9-1.2-.5-2.5-.8-3.9-.9-3.7-.2-7.5,0-11.2-.2h0v-.4Z"/>
        <path class="st0" d="M270.2,37.3V12.9c0-.4.1-.5.5-.4h44.2c1,0,.9-.1.9.9v6.9c0,.9,0,.8-.9.8h-34.1c-1.1,0-1-.1-1,1v10.5c0,.2.1.4.4.4h32.9c1.1,0,.9,0,.9.9v6q0,.8-.8.8h-32.3c-1.2,0-1.1-.2-1.1,1.1v11.1c0,.3,0,.5.4.5h34.9c1,0,.9,0,.9.9v7.1q0,.7-.7.7h-44.6q-.7,0-.7-.7v-24.1h.2Z"/>
        <path class="st3" d="M457,62.2h-22.5c-.4,0-.5,0-.5-.5V13.5c0-1.1,0-1,1-1h43.7c1,0,.9-.1.9.9v7q0,.8-.8.8h-34.1c-1.3,0-1.1,0-1.1,1.1v10.4c0,.2,0,.3.4.3h32.9c1,0,.9,0,.9.9v6c0,.9,0,.8-.8.8h-32.3q-1,0-1,1v10.9q0,.8.8.8h34.6c1.1,0,1,0,1,.9v7q0,.7-.7.7h-22.3v.2Z"/>
        <path class="st8" d="M68.1,30.8V13.3c0-.9,0-.8.9-.8h8.1q.9,0,.9.9v31.6c0,1.3.3,2.6.6,3.8.4,1.7,1.5,2.9,3.2,3.5,1.3.5,2.6.7,3.9.8,5,.4,9.9.4,14.9.2,1.9,0,3.7,0,5.6-.4,2.7-.4,4.3-2,4.9-4.6.2-1,.3-2,.3-3,.2-7.7,0-15.3,0-23v-9.1q0-.7.7-.7h8.5q.7,0,.7.6v33.8c0,2-.3,4-.7,5.9-.9,4.3-3.6,6.9-7.5,8.4-1.6.6-3.2.9-4.8,1-7.1.6-14.3.5-21.4.3-2.5,0-5-.2-7.5-.6-1.1-.2-2.2-.4-3.3-.8-3.8-1.3-6.1-3.9-7.1-7.7-.5-1.7-.6-3.4-.7-5.1-.2-2.3-.2-4.6-.2-7v-10.6h0Z"/>
        <path class="st2" d="M370,42c.4,0,.7,0,1.1.2,2.9.5,4.2,1.9,4.7,4.7.2,1.2.3,2.4.3,3.6v10.9q0,.7-.7.7h-8.6q-.6,0-.6-.6v-6.7c0-1.5,0-3-.4-4.5-.4-1.8-1.6-3-3.4-3.4-.6,0-1.3-.2-1.9-.3h-25.3c-1,0-.8,0-.8.9v14.2c0,.4-.1.5-.5.5h-8.9c-.4,0-.5,0-.5-.5V13.5c0-1.1-.1-.9.9-.9h35.5c2.4,0,4.8,0,7.2.6,2.3.5,4.4,1.4,6,3.3,1.1,1.3,1.7,2.9,2.1,4.5.4,1.7.6,3.4.7,5.2,0,2.6,0,5.2-.2,7.8-.1.9-.3,1.8-.6,2.7-.8,2.6-2.5,4.3-5.1,5-.3,0-.6.2-.9.3h0c0,0-.1,0-.1,0ZM347.5,37.5h12.2c1.2,0,2.4-.2,3.5-.5,1.9-.5,3-1.8,3.4-3.7.5-2.3.4-4.6,0-6.9-.5-2.8-1.6-3.9-4.4-4.4-1.3-.3-2.7-.3-4.1-.3h-23.7c-.2,0-.3.1-.3.3v15c0,.3,0,.5.4.5h13Z"/>
        <path class="st5" d="M57.4,29.9v12.2c0,2.8-.1,5.5-.6,8.2-.3,1.8-.7,3.5-1.5,5.1-1.6,3.1-4.2,5-7.5,5.9-2.2.6-4.4,1-6.7,1.1-5.5.2-10.9.3-16.4,0-3.1,0-6.1-.3-9.1-1-1.5-.4-3-.9-4.3-1.8-2.8-1.7-4.1-4.3-4.7-7.4-.5-2.5-.4-5-.4-7.5v-2q0-.7.7-.7h9.5c3.2,0,.4,0,.6,0q.5,0,.5.6c0,1.4,0,2.9,0,4.3,0,.9.2,1.9.6,2.7.5,1.2,1.3,2,2.5,2.5,1.4.5,2.8.7,4.3.9,4.1.4,8.2.4,12.4,0,1.2,0,2.3-.2,3.5-.5,2.8-.7,4.1-2.2,4.4-5.1.2-2,.3-4.1.3-6.1V13.3c0-1,0-.9.9-.9h10.6c.3,0,.3.1.3.4v17.1h0Z"/>
        <path class="st11" d="M211.8,37.3V13.3c0-1,0-.9.8-.9h33.2c2.1,0,4.1,0,6.2.3,1.8.2,3.4.7,5,1.5,2.1,1.1,3.4,2.9,4.2,5.2.6,1.7.9,3.4,1,5.2.3,3.3.3,6.6,0,9.8-.1,1.8-.4,3.5-1,5.2-1.2,3.7-3.8,6-7.7,6.8-2.3.4-4.6.5-6.9.5h-24c-1.1,0-.9,0-.9,1v13.7c0,.4,0,.6-.5.5h-8.6q-.7,0-.7-.8v-24.1h-.1ZM233.9,21.7h-11.6q-.8,0-.8.7v14.7q0,.7.7.7h22c1.1,0,2.3,0,3.4-.3,2.7-.4,4-1.7,4.5-4.2s.4-5-.1-7.4c-.4-2.1-1.7-3.3-3.8-3.8-1.2-.3-2.5-.4-3.7-.4h-10.6Z"/>
        <path class="st4" d="M347.5,37.5h-12.9c-.4,0-.5,0-.4-.5v-15c0-.2,0-.3.3-.3h23.7c1.4,0,2.7,0,4.1.3,2.8.5,3.9,1.6,4.4,4.4.4,2.3.4,4.6,0,6.9-.4,1.9-1.5,3.1-3.4,3.7-1.2.3-2.3.5-3.5.5h-12.3ZM336.4,22.8v12.5q0,.5.5.5h22.7c1.3,0,2.6,0,3.9-.4,1.5-.4,2.5-1.2,2.7-2.7.4-2.3.3-4.7,0-7-.3-1.5-1.2-2.3-2.6-2.6-1.3-.3-2.6-.3-3.9-.3h-23.3Z"/>
        <path class="st4" d="M233.9,21.7h10.6c1.2,0,2.5.1,3.7.4,2.1.5,3.3,1.7,3.8,3.8.5,2.5.6,5,.1,7.4-.5,2.6-1.9,3.8-4.5,4.2-1.1.2-2.2.3-3.4.3h-22q-.7,0-.7-.7v-14.7q0-.7.8-.7h11.6ZM235.5,36.1h9.3c1.3,0,2.7,0,4-.3,1.6-.3,2.6-1.4,2.9-3,.1-.8.2-1.5.2-2.3,0-1.6,0-3.2-.3-4.7-.3-1.6-1.3-2.5-2.9-2.8-1.2-.2-2.4-.3-3.6-.3h-21c-.4,0-.4.1-.4.5v12.4q0,.6.6.6h11.3-.1Z"/>
      </g>
    </g>
  </g>
</svg>